<svg xmlns="http://www.w3.org/2000/svg" viewBox="0 0 32 32">
  <circle cx="16" cy="16" r="15" fill="#4a8b6e" opacity="0.15"/>
  <circle cx="16" cy="16" r="11" fill="#4a8b6e" opacity="0.1"/>
  <path d="M16 6 C16 6 10 10 10 16 C10 19.3 12.7 22 16 22 C19.3 22 22 19.3 22 16 C22 10 16 6 16 6Z" fill="#4a8b6e" opacity="0.7"/>
  <path d="M16 10 C16 10 13 13 13 16 C13 17.7 14.3 19 16 19 C17.7 19 19 17.7 19 16 C19 13 16 10 16 10Z" fill="#4a8b6e"/>
  <line x1="16" y1="19" x2="16" y2="26" stroke="#4a8b6e" stroke-width="1.5" stroke-linecap="round"/>
</svg>
